# xmcd
#
# Track frame offsets: 
#        150
#        32389
#        70479
#        97111
#        134716
#        184898
#        231303
#        245828
#        282134
#
# Disc length: 4249 seconds
#
# Revision: 1
# Processed by: cddbd v1.5.2PL0 Copyright (c) Steve Scherf et al.
# Submitted via: ExactAudioCopy v0.99pb4
#
DISCID=8a109709
DTITLE=Phil Miller - In Cahoots - Conspiracy Theories
DYEAR=2006
DGENRE=Canterbury scene
TTITLE0=Conspiracy Theories
TTITLE1=Press Find Enter
TTITLE2=Flashpoint
TTITLE3=5s and 7s
TTITLE4=End of the Line
TTITLE5=Freudian Triode
TTITLE6=Orinaca
TTITLE7=Crackpot
TTITLE8=Lydiotic
EXTD=YEAR: 2006
EXTT0=
EXTT1=
EXTT2=
EXTT3=
EXTT4=
EXTT5=
EXTT6=
EXTT7=
EXTT8=
PLAYORDER=
